<svg width="96" height="77" viewBox="0 0 96 77" fill="none" xmlns="http://www.w3.org/2000/svg">
<path d="M1.37327 21.0772V0.389085H12.5499V3.15693H4.39887V9.24973H12.5499V12.0176H4.39887V18.3049H12.5499V21.0727H1.37327V21.0772ZM35.2397 15.9615C33.14 19.565 29.8043 21.4707 25.6623 21.4707C19.9212 21.4707 15.1856 16.3241 15.1856 10.8194C15.1856 4.58507 20.1161 0 25.6889 0C29.6093 0 33.2773 1.7907 35.3815 5.67275H31.7401C30.1719 3.85553 28.3513 2.76342 25.9148 2.76342C21.5735 2.76342 18.2112 6.4244 18.2112 10.5364C18.2112 14.8694 21.4894 18.6984 25.7465 18.6984C27.9038 18.6984 29.8353 17.8583 31.5142 15.9571H35.2397V15.9615ZM47.7054 21.4707C41.9643 21.4707 37.0914 16.5496 37.0914 10.9608C37.0914 4.61602 41.9643 0.00441905 47.7896 0.00441905C53.9515 0.00441905 58.6561 4.84152 58.6561 10.5983C58.6561 16.8591 53.8142 21.4707 47.7054 21.4707ZM55.6349 10.7928C55.6349 6.51725 52.3878 2.76784 48.0155 2.76784C42.4161 2.76784 40.117 7.57399 40.117 10.6513C40.117 14.8164 43.1426 18.7028 47.8737 18.7028C52.7776 18.7028 55.6349 14.5643 55.6349 10.7928ZM16.0229 49.0386L12.2708 34.5848H12.2132L8.46108 49.0386H5.79872L0 28.3505H3.13636L7.08339 43.9229H7.14098L11.1456 28.3505H13.3561L17.3076 43.808H17.3651L21.3963 28.3505H24.4795L18.6808 49.0386H16.0229ZM35.7713 49.4321C30.0302 49.4321 25.1573 44.511 25.1573 38.9222C25.1573 32.5774 30.0302 27.9658 35.8555 27.9658C42.0174 27.9658 46.722 32.8029 46.722 38.5597C46.7264 44.8205 41.8801 49.4321 35.7713 49.4321ZM43.7008 38.7542C43.7008 34.4787 40.4537 30.7292 36.0814 30.7292C30.482 30.7292 28.1829 35.5354 28.1829 38.6127C28.1829 42.7778 31.2085 46.6642 35.9396 46.6642C40.8435 46.6642 43.7008 42.5258 43.7008 38.7542ZM59.5288 49.0386L52.6935 39.4528H52.6359V49.0386H49.6103V28.3505H56.2462C61.2298 28.3505 63.4448 30.9769 63.4448 35.2259C63.4448 39.1699 60.4192 41.2347 57.5087 41.3187L63.3075 49.0342H59.5288V49.0386ZM54.8508 39.0328C58.3814 39.0328 60.4236 37.6621 60.4236 34.9783C60.4236 32.5995 58.5188 31.1183 55.8298 31.1183H52.6359V39.0284H54.8508V39.0328ZM66.6476 49.0386V28.3505H69.6732V46.2707H76.8718V49.0386H66.6476ZM78.6924 49.0386V28.3505H85.891C92.1637 28.3505 96 33.2981 96 38.6923C96 45.0106 91.9954 49.0342 85.4392 49.0342H78.6924V49.0386ZM85.3328 46.2707C90.1215 46.2707 92.9788 43.4764 92.9788 38.7498C92.9788 34.1073 89.7007 31.1183 85.4746 31.1183H81.7225V46.2707H85.3328ZM1.37327 77V56.3119H7.39348C11.8455 56.3119 14.6762 58.5182 14.6762 62.5727C14.6762 66.6272 11.9031 68.8335 7.42449 68.8335H4.39887V76.9956H1.37327V77ZM7.3979 66.0701C10.0603 66.0701 11.655 64.81 11.655 62.5727C11.655 60.3089 10.0027 59.0797 7.37133 59.0797H4.4033V66.0701H7.3979ZM28.8828 77V67.9979H20.342V77H17.3164V56.3119H20.342V65.23H28.8828V56.3119H31.9084V77H28.8828ZM49.5837 77L47.289 70.9072H39.8379L37.5433 77H34.3493L42.2212 56.3119H44.9367L52.8086 77H49.5837ZM43.6166 60.2293H43.559L40.8967 68.1394H46.248L43.6166 60.2293ZM64.8801 77L58.0448 67.4098H57.9872V77H54.9616V56.3119H61.5975C66.5811 56.3119 68.7961 58.9383 68.7961 63.1873C68.7961 67.1313 65.7705 69.1961 62.86 69.2801L68.6588 76.9956H64.8801V77ZM60.2021 66.9942C63.7327 66.9942 65.7749 65.6235 65.7749 62.9397C65.7749 60.5654 63.8701 59.0797 61.1811 59.0797H57.9872V66.9898H60.2021V66.9942ZM90.848 77V59.5263H90.7639L83.7912 77H81.9706L74.9669 59.5263H74.9093V77H71.8837V56.3119H76.6458L82.8654 72.1629L89.1115 56.3119H93.8736V77H90.848Z" fill="url(#paint0_linear_54_1470)"/>
<defs>
<linearGradient id="paint0_linear_54_1470" x1="5.3097" y1="80.9295" x2="73.9422" y2="12.1664" gradientUnits="userSpaceOnUse">
<stop stop-color="#009869"/>
<stop offset="1" stop-color="#85C692"/>
</linearGradient>
</defs>
</svg>
